<svg width="40" height="40" viewBox="0 0 40 40" fill="none" xmlns="http://www.w3.org/2000/svg">
<g clip-path="url(#clip0_23_104)">
<path d="M38.5467 1.92174L30.4217 0.0467433C29.5389 -0.156382 28.6327 0.304556 28.2733 1.13268L24.5233 9.88268C24.1952 10.6483 24.4139 11.5467 25.0623 12.0702L29.7967 15.9452C26.9842 21.9374 22.0702 26.9217 15.953 29.7889L12.078 25.0546C11.5467 24.4061 10.6561 24.1874 9.89046 24.5155L1.14046 28.2655C0.304525 28.6327 -0.156413 29.5389 0.0467122 30.4217L1.92171 38.5467C2.11703 39.3905 2.86703 39.9999 3.74984 39.9999C23.7577 39.9999 39.9999 23.7889 39.9999 3.74987C39.9999 2.87487 39.3983 2.11706 38.5467 1.92174Z" fill="white"/>
</g>
<defs>
<clipPath id="clip0_23_104">
<rect width="40" height="40" fill="white"/>
</clipPath>
</defs>
</svg>
